<svg width="512" height="512" viewBox="0 0 512 512" xmlns="http://www.w3.org/2000/svg">
  <defs>
    <linearGradient id="logoGradient" x1="0%" y1="0%" x2="100%" y2="100%">
      <stop offset="0%" style="stop-color:#2563eb;stop-opacity:1" />
      <stop offset="100%" style="stop-color:#9333ea;stop-opacity:1" />
    </linearGradient>
  </defs>
  
  <!-- Background square with gradient -->
  <rect x="0" y="0" width="512" height="512" fill="url(#logoGradient)" stroke="none"/>
  
  <!-- Book icon perfectly centered -->
  <g transform="translate(256,256) scale(16) translate(-12,-12)">
    <path d="M12 6.253v13m0-13C10.832 5.477 9.246 5 7.5 5S4.168 5.477 3 6.253v13C4.168 18.477 5.754 18 7.5 18s3.332.477 4.5 1.253m0-13C13.168 5.477 14.754 5 16.5 5c1.746 0 3.332.477 4.5 1.253v13C19.832 18.477 18.246 18 16.5 18c-1.746 0-3.332.477-4.5 1.253" 
          stroke="white" 
          stroke-width="2" 
          stroke-linecap="round" 
          stroke-linejoin="round" 
          fill="none"/>
  </g>
</svg> 
